<svg id="Layer_1" data-name="Layer 1" xmlns="http://www.w3.org/2000/svg" viewBox="0 0 32 36"><defs><style>.cls-1,.cls-6{fill:#02c16a;}.cls-2,.cls-5{fill:#f9eed7;}.cls-3{fill:#5c5e70;}.cls-4{fill:#e8dbc4;}.cls-5{font-size:12.49px;font-family:BalooBhaina-Regular, Baloo Bhaina;}.cls-6{font-size:10.88px;font-family:MyriadPro-Bold, Myriad Pro;font-weight:700;}</style></defs><path id="Rectangle" class="cls-1" d="M0,24H32V34a2,2,0,0,1-2,2H2a2,2,0,0,1-2-2V24Z"/><path id="Path" class="cls-2" d="M0,24V1.56A1.58,1.58,0,0,1,1.6,0H23l9,9.5V24"/><path id="Combined-Shape" class="cls-3" d="M27.08,18.83a.79.79,0,1,1,0,1.58H4.92a.79.79,0,1,1,0-1.58Zm0-4.75a.79.79,0,1,1,0,1.58H4.92a.79.79,0,1,1,0-1.58Z"/><path id="Path-Copy" class="cls-4" d="M23,7.8V0l9,9.5H24.69A1.69,1.69,0,0,1,23,7.8Z"/><text class="cls-5" transform="translate(7.5 34) scale(0.82 1)">XLS</text><text class="cls-6" transform="translate(4.12 11.31) scale(0.82 1)">E</text></svg>