<?xml version="1.0" encoding="UTF-8"?>
<svg width="40px" height="36px" viewBox="0 0 32 36" version="1.1" xmlns="http://www.w3.org/2000/svg" xmlns:xlink="http://www.w3.org/1999/xlink">
    <title>icon-pdf</title>
    <g id="Page-1" stroke="none" stroke-width="1" fill="none" fill-rule="evenodd">
        <g id="icon-pdf" fill-rule="nonzero">
            <path d="M32,9 L32,29.9764698 C28.6128159,35.3411767 3.38718414,35.3411767 0,29.9764698 L0,1.73192283 C0,0.775491236 0.758860668,-3.55271368e-15 1.69478139,-3.55271368e-15 L22.5033519,-3.55271368e-15 L32,9 Z" id="Path" fill="#F9EED7"></path>
            <path d="M22.4933242,7.3937226 L22.4933242,0 L32,9 L24.0996016,9 C23.212493,9 22.4933242,8.28083125 22.4933242,7.3937226 Z" id="Path" fill="#E8DBC4"></path>
            <path d="M8.68017578,21.7436445 C8.42233984,21.7436445 8.16650781,21.7030469 7.92410937,21.6191055 C7.29599609,21.4013477 6.89462109,20.9287227 6.82262891,20.3222813 C6.72488281,19.4982305 7.21643359,18.1264453 10.113043,16.2707539 C10.9506016,15.7342266 11.8079766,15.3076914 12.6671328,14.9725195 C12.753375,14.8093867 12.8416211,14.6431367 12.9312031,14.4744375 C13.5950898,13.224 14.3659258,11.7720586 14.9793437,10.3625703 C13.8469141,8.13148047 13.3709492,6.044375 13.3709492,5.39466406 C13.3709492,4.24724219 14.015168,3.32997266 14.90275,3.21359766 C15.2598164,3.16669141 16.4700273,3.18205469 17.046707,5.34471484 C17.4018437,6.67634766 16.9442852,8.45522266 16.1803516,10.3142539 C16.3892031,10.6965547 16.6229922,11.0882813 16.8838711,11.4796367 C17.452832,12.3330781 18.0957148,13.1523047 18.7576719,13.8873672 C21.560543,13.9042148 23.7305508,14.5674336 24.2815508,14.9221992 C25.0661914,15.4275547 25.3842187,16.2835195 25.0728711,17.0522773 C24.6610312,18.0692969 23.5437422,18.235918 22.7118242,18.0695938 C21.5101484,17.8292734 20.1699805,16.7761836 19.2573867,15.9352109 C18.9332734,15.6365547 18.610793,15.3171172 18.2941758,14.9820938 C16.9030937,15.0134141 15.1949492,15.2228594 13.4316602,15.8501563 C13.285375,16.1287734 13.146957,16.3960352 13.0195234,16.64875 C12.8420664,17.0379531 11.4532852,20.0458906 10.5199844,20.9792656 C10.026875,21.4724492 9.34680859,21.7436445 8.68017578,21.7436445 Z M11.8877617,16.5084766 C11.4893555,16.7084961 11.0918398,16.9331563 10.6987773,17.1850547 C7.90807812,18.9728359 7.87846484,20.0056641 7.90080469,20.1945508 C7.92277344,20.3795781 8.05028125,20.5138398 8.27969141,20.5933281 C8.68240234,20.7328594 9.31734375,20.6466172 9.75226562,20.2117695 C10.3631602,19.6007266 11.3910156,17.5621602 11.8877617,16.5084766 Z M19.8621953,15.0192031 C21.0090234,16.0976758 22.12275,16.8446875 22.9247578,17.005 C23.6048242,17.1411914 23.9647852,16.8959727 24.0666133,16.6447422 C24.1777187,16.3702813 24.0314336,16.0524023 23.6936641,15.8350156 C23.376082,15.6306172 21.8963828,15.1609609 19.8621953,15.0192031 Z M15.6385547,11.5459141 C15.1749102,12.5416328 14.6560469,13.5375 14.1579648,14.4785195 C15.2564766,14.1759297 16.3382148,14.0072305 17.3645117,13.9331602 C16.8685078,13.3368125 16.4005586,12.7119648 15.9805547,12.0819219 C15.8621016,11.9043164 15.7480273,11.7253008 15.6385547,11.5459141 Z M15.0814687,4.28783984 C15.0687031,4.28783984 15.0560859,4.28858203 15.0437656,4.29021484 C14.7612891,4.32717578 14.4566211,4.76001953 14.4566211,5.39466406 C14.4566211,5.65398438 14.6072109,6.50052344 15.011332,7.66805859 C15.140918,8.04226953 15.3109531,8.49092188 15.5276719,8.98447656 C15.9912422,7.6771875 16.2269609,6.48441797 15.997625,5.62451953 C15.7490664,4.69248047 15.3660234,4.28783984 15.0814687,4.28783984 Z" id="Shape" fill="#5C5E70"></path>
            <path d="M0,24 L32,24 L32,34 C32,35.1045695 31.1045695,36 30,36 L2,36 C0.8954305,36 1.3527075e-16,35.1045695 0,34 L0,24 L0,24 Z" id="Rectangle-Copy-16" fill="#FF525D"></path>
            <path d="M9.61094141,26.0000742 C10.9114766,26.0000742 11.9360664,26.6109688 11.9360664,28.2661211 L11.9360664,28.3154023 C11.9360664,29.9706289 10.8719922,30.6011914 9.51237891,30.6011914 L8.53699609,30.6011914 L8.53699609,32.7292656 C8.53699609,33.0445469 8.15276563,33.2021875 7.76846094,33.2021875 C7.38430469,33.2021875 7,33.0445469 7,32.7292656 L7,26.463125 C7,26.216793 7.22658984,26.0000742 7.57148438,26.0000742 L9.61094141,26.0000742 Z M16.0054063,26.0000742 C17.3650195,26.0000742 18.4290938,26.6306367 18.4290938,28.3251992 L18.4290938,30.8769883 C18.4290938,32.571625 17.3650195,33.2021133 16.0054063,33.2021133 L14.2614883,33.2021133 C13.8575898,33.2021133 13.5915156,32.9853203 13.5915156,32.7390625 L13.5915156,26.463125 C13.5915156,26.216793 13.8575898,26.0000742 14.2614883,26.0000742 L16.0054063,26.0000742 Z M24.4788125,26 C24.8038906,26 24.9418633,26.3448203 24.9418633,26.6601016 C24.9418633,27.0246641 24.7744258,27.3399453 24.4788125,27.3399453 L21.9270977,27.3399453 L21.9270977,29.005043 L23.4148125,29.005043 C23.7104258,29.005043 23.8778633,29.2907852 23.8778633,29.6060664 C23.8778633,29.8720664 23.7399648,30.1874219 23.4148125,30.1874219 L21.9270977,30.1874219 L21.9270977,32.7293398 C21.9270977,33.0445469 21.5428672,33.2022617 21.1585625,33.2022617 C20.7744063,33.2022617 20.3901016,33.0446211 20.3901016,32.7293398 L20.3901016,26.4729961 C20.3900273,26.1577148 20.7249766,26 21.06,26 L24.4788125,26 Z M16.0054805,27.3399453 L15.1285859,27.3399453 L15.1285859,31.8622422 L16.0054805,31.8622422 C16.5571484,31.8622422 16.8921719,31.5469609 16.8921719,30.8769883 L16.8921719,28.3251992 C16.8921719,27.6552266 16.5572227,27.3399453 16.0054805,27.3399453 Z M8.53707031,27.3399453 L8.53707031,29.4188867 L9.51245313,29.4188867 C10.0641211,29.4188867 10.3991445,29.1036797 10.3991445,28.4336328 L10.3991445,28.3252734 C10.3991445,27.6553008 10.0641953,27.3400195 9.51245313,27.3400195 L8.53707031,27.3399453 Z" id="Combined-Shape" fill="#F9EED7"></path>
        </g>
    </g>
</svg>
