<svg width="60" height="60" viewBox="0 0 60 60" fill="none" xmlns="http://www.w3.org/2000/svg">
<g clip-path="url(#clip0_306_23)">
<path d="M13.2962 3.40955C11.1951 3.40955 9.49188 5.11278 9.49188 7.21383V56.2183C9.49188 58.3194 11.1951 60.0226 13.2962 60.0226H48.1957C50.2968 60.0226 52 58.3194 52 56.2183V15.1406C52 14.3763 51.6964 13.6432 51.1558 13.1027L42.3067 4.2536C41.7663 3.71316 41.0331 3.40942 40.2688 3.40942H13.2962V3.40955Z" fill="#F0F0F0"/>
<path d="M51.156 13.1027L45.2658 7.21252V16.4271C45.2658 17.3137 45.9106 18.048 46.7566 18.1912C46.7566 18.1912 46.7566 18.1912 46.7565 18.1912V56.2184C46.7565 58.3195 45.0533 60.0227 42.9522 60.0227H48.1957C50.2968 60.0227 52 58.3195 52 56.2184V15.1407C52.0001 14.3763 51.6965 13.6433 51.156 13.1027V13.1027Z" fill="#EAEAEA"/>
<path d="M51.156 13.1027L42.3068 4.25357C42.0604 4.00716 41.7738 3.81071 41.4627 3.66913V10.1425C41.4627 12.2435 43.1659 13.9467 45.2669 13.9467H51.7403C51.5988 13.6358 51.4024 13.3491 51.156 13.1027Z" fill="#D4D7DD"/>
<path d="M44.1198 35.6106H17.3723C16.8283 35.6106 16.3874 35.1696 16.3874 34.6257C16.3874 34.0816 16.8284 33.6406 17.3723 33.6406H44.1198C44.6639 33.6406 45.1048 34.0816 45.1048 34.6257C45.1048 35.1696 44.6639 35.6106 44.1198 35.6106Z" fill="#8A94A6"/>
<path d="M44.1198 42.2778H17.3723C16.8283 42.2778 16.3874 41.8367 16.3874 41.2928C16.3874 40.7489 16.8284 40.3077 17.3723 40.3077H44.1198C44.6639 40.3077 45.1048 40.7487 45.1048 41.2928C45.1048 41.8368 44.6639 42.2778 44.1198 42.2778Z" fill="#8A94A6"/>
<path d="M44.1198 48.9448H17.3723C16.8283 48.9448 16.3874 48.5037 16.3874 47.9597C16.3874 47.4156 16.8284 46.9745 17.3723 46.9745H44.1198C44.6639 46.9745 45.1048 47.4156 45.1048 47.9597C45.1048 48.5037 44.6639 48.9448 44.1198 48.9448Z" fill="#8A94A6"/>
<path d="M21.2211 8.01381C19.7181 8.01381 18.4953 9.23665 18.4953 10.7397V12.8463C18.4953 13.3903 18.9363 13.8313 19.4802 13.8313C20.0242 13.8313 20.4652 13.3902 20.4652 12.8463V10.7398C20.4652 10.323 20.8043 9.98402 21.221 9.98402C21.6377 9.98402 21.9768 10.3231 21.9768 10.7398V14.9396C21.9768 16.4141 20.7771 17.6139 19.3024 17.6139C17.8277 17.6139 16.6281 16.4143 16.6281 14.9396V4.51016C16.6281 3.03548 17.8277 1.8358 19.3024 1.8358C20.777 1.8358 21.9768 3.03548 21.9768 4.51016V5.61821H23.9469V4.51016C23.947 1.94917 21.8636 -0.134277 19.3026 -0.134277C16.7416 -0.134277 14.6581 1.94917 14.6581 4.51016V14.9396C14.6581 17.5004 16.7416 19.584 19.3026 19.584C21.8634 19.584 23.947 17.5006 23.947 14.9396V10.7398C23.947 9.23665 22.7242 8.01381 21.2211 8.01381V8.01381Z" fill="#C53E3B"/>
<rect x="19.4309" y="3.3996" width="9.93906" height="2.76085" fill="#F0F0F0"/>
</g>
<defs>
<clipPath id="clip0_306_23">
<rect width="60" height="60" fill="white"/>
</clipPath>
</defs>
</svg>
